<svg width="56" height="56" viewBox="0 0 56 56" fill="none" xmlns="http://www.w3.org/2000/svg">
<path d="M1.18913 34.6265C2.84496 32.8671 5.61379 32.7831 7.37352 34.4391L14 40.6758V31.9909L9.73384 13.2196C9.19834 10.8635 10.6742 8.51933 13.0304 7.98384C15.3873 7.44855 17.7308 8.92435 18.2662 11.2805L22.0661 28H23.1416L17.9393 5.35566C17.3983 3.00071 18.8687 0.653194 21.2236 0.112226C23.5786 -0.429181 25.926 1.04169 26.467 3.39654L32.1195 28H33.7716L39.0681 6.81385C39.654 4.46973 42.0294 3.04457 44.3736 3.6306C46.7177 4.21663 48.1429 6.59193 47.5568 8.93605L42.7909 28H44.0028L47.368 13.8616C47.9277 11.5111 50.2867 10.0589 52.6374 10.619C54.988 11.1787 56.4398 13.5378 55.88 15.8884L51.9106 32.5644C51.7209 33.3612 51.625 34.1774 51.625 34.9964V39.6013C51.625 40.6118 51.4791 41.617 51.1919 42.5858L48.3291 52.2422C47.6684 54.4712 45.6204 56 43.2957 56H19.5969C18.2596 56 16.9726 55.4897 15.9987 54.5731L1.37649 40.8109C-0.383024 39.1548 -0.466805 36.386 1.18913 34.6265Z" fill="#304859"/>
<mask id="mask0_18104_1619" style="mask-type:luminance" maskUnits="userSpaceOnUse" x="0" y="0" width="56" height="56">
<path d="M1.18913 34.6265C2.84496 32.8671 5.61379 32.7831 7.37352 34.4391L14 40.6758V31.9909L9.73384 13.2196C9.19834 10.8635 10.6742 8.51933 13.0304 7.98384C15.3873 7.44855 17.7308 8.92435 18.2662 11.2805L22.0661 28H23.1416L17.9393 5.35566C17.3983 3.00071 18.8687 0.653194 21.2236 0.112226C23.5786 -0.429181 25.926 1.04169 26.467 3.39654L32.1195 28H33.7716L39.0681 6.81385C39.654 4.46973 42.0294 3.04457 44.3736 3.6306C46.7177 4.21663 48.1429 6.59193 47.5568 8.93605L42.7909 28H44.0028L47.368 13.8616C47.9277 11.5111 50.2867 10.0589 52.6374 10.619C54.988 11.1787 56.4398 13.5378 55.88 15.8884L51.9106 32.5644C51.7209 33.3612 51.625 34.1774 51.625 34.9964V39.6013C51.625 40.6118 51.4791 41.617 51.1919 42.5858L48.3291 52.2422C47.6684 54.4712 45.6204 56 43.2957 56H19.5969C18.2596 56 16.9726 55.4897 15.9987 54.5731L1.37649 40.8109C-0.383024 39.1548 -0.466805 36.386 1.18913 34.6265Z" fill="white"/>
</mask>
<g mask="url(#mask0_18104_1619)">
<rect width="56" height="56" fill="#ffffff"/>
</g>
</svg>
